<?xml version="1.0" encoding="UTF-8"?>
<svg id="Camada_1" data-name="Camada 1" xmlns="http://www.w3.org/2000/svg" viewBox="0 0 1366 768">
  <defs>
    <style>
      .cls-1 {
        fill: #8cc63f;
      }

      .cls-2, .cls-3 {
        fill-rule: evenodd;
      }

      .cls-2, .cls-4 {
        fill: #f5f4f3;
      }

      .cls-3 {
        fill: #0e0c0b;
      }

      .cls-5 {
        fill: #fe0000;
      }

      .cls-6 {
        fill: #fff316;
      }
    </style>
  </defs>
  <rect class="cls-1" x="2.2" y="1.42" width="1362.77" height="764.5"/>
  <path class="cls-3" d="M1311.16,100.62c.08,600.9.16,601.89-5.1,609.47-11.62,16.73-15.8,14.22-203.64,14.21q-1023.72,0-1031.56-2.83c-20.84-9.58-17.55-16.4-17.55-192.51,0-450.38-.65-451.4,4.88-459.4,11.56-16.73,15.78-14.2,203.65-14.2,652.52,0,938.04.13,1013.64-.23,42.89-.2,35.63,44.38,35.68,45.49Z"/>
  <path class="cls-5" d="M112.62,301.43l-1.18,138.53c36.82.2,73.63.41,110.45.61"/>
  <path class="cls-5" d="M200.71,149.83h0s-16.87-.69-43.12-1.77c-6.62,2.53-17.89,7.88-27.76,18.9-15.68,17.5-17.47,37.71-18.31,47.25-.73,8.29-1.41,28.7,9.45,49.61,7.59,14.62,17.51,23.29,20.67,25.99,17.55,14.97,46.92,47.24,99.23,119.9-.13,10.73-.26,21.46-.38,32.19,15.95-.59,31.89-1.18,47.84-1.77,2.95-1.25,42.06-18.57,48.82-59.36,4.04-24.43-5.77-43.72-9.45-50.2-41.77-49.12-83.53-98.24-125.3-147.36h0s-1.68-33.37-1.68-33.37Z"/>
  <path class="cls-5" d="M322.88,277.7l1.18-133.48c-36.82-.2-73.63-.39-110.45-.59"/>
  <ellipse class="cls-5" cx="474.38" cy="453.41" rx="81.51" ry="79.73"/>
  <path class="cls-5" d="M562.96,140.68s57.87,0,167.45,0c-.57,186.97-.88,286.92-.88,286.92h0s.8,36.34-15.78,62.11c-7.23,11.23-15.82,17.46-21.92,21.87-43.88,31.77-117.6,21.13-129.75,19.24.57-255.59.88-390.14.88-390.14h0Z"/>
  <polygon class="cls-5" points="357.14 146.29 446.92 146.29 447.51 373.68 358.32 374.27 357.14 146.29"/>
  <path class="cls-5" d="M470.54,146.29h0s.2,43.7.59,128.76h0c44.87,2.21,50.2,0,50.2,0,24.69-10.22,38.27-51.16,30.12-83.87-1.41-5.67-8.16-32.76-29.53-42.52-20.05-9.16-51.38-2.36-51.38-2.36Z"/>
  <path class="cls-6" d="M589.85,534.92c26.38,13.91,52.76,27.82,79.14,41.73l-33.67,5.52,73.83,45.97,247.47,53.94-73.24,1.84,164.78,28.2-779.62-.61,28.35-33.1,57.88-1.23-2.95-55.78,46.66,13.48-47.84-34.94,70.87,6.13-53.16-42.29c38.19-.07,76.39-.14,114.58-.21-18.9-9.74-37.8-19.48-56.7-29.21l55.52-.61c36.03.39,72.06.79,108.08,1.18Z"/>
  <polygon class="cls-6" points="472.35 522.91 563.92 523.25 543.58 508.37 562.48 508.05 441.54 447.95 468.25 489.99 450.53 490.3 472.35 522.91"/>
  <polyline class="cls-2" points="95.79 544.07 154.26 544.07 176.41 602.54 197.67 544.96 257.92 544.07 257.92 638.57 221 638.87 220.71 569.76 218.05 569.47 196.19 638.28 158.39 638.28 138.02 572.72 134.18 572.72 134.47 638.87 94.02 638.57 94.02 543.78"/>
  <path class="cls-4" d="M353.3,541.41c-41.1,0-74.42,22.54-74.42,50.35s33.32,50.35,74.42,50.35,74.42-22.54,74.42-50.35-33.32-50.35-74.42-50.35ZM353.3,621.44c-17.78,0-32.19-13.42-32.19-29.97s14.41-29.97,32.19-29.97,32.19,13.42,32.19,29.97-14.41,29.97-32.19,29.97Z"/>
  <polygon class="cls-4" points="570.06 563.86 526.65 563.86 526.93 639.16 483.23 639.16 482.94 563.56 439.24 563.56 439.52 544.07 570.05 544.07 570.06 563.86"/>
  <path class="cls-4" d="M656.44,541.71c-41.1,0-74.42,22.54-74.42,50.35s33.32,50.35,74.42,50.35,74.42-22.54,74.42-50.35-33.32-50.35-74.42-50.35ZM656.44,621.74c-17.78,0-32.19-13.42-32.19-29.97s14.41-29.97,32.19-29.97,32.19,13.42,32.19,29.97-14.41,29.97-32.19,29.97Z"/>
  <path class="cls-4" d="M851.2,595.16c5.22-.1,10.43-.2,15.65-.3,1.24-.13,10.64-1.3,15.95-9.75,3.84-6.11,3.21-12.34,2.95-14.18-.04-2.47-.46-9.63-5.61-16.54-5.46-7.32-12.76-9.69-15.07-10.34h-109.56l.29,95.09h43.12l.6-38.1h14.47l31.59,38.1h51.97c-15.45-14.67-30.9-29.33-46.35-44ZM841.82,576.56c-1.08,1.48-2.45,2.13-3.03,2.36-13.31.02-26.63.05-39.94.07v-12.62c13.31.05,26.63.1,39.94.15.63.3,2.06,1.08,3.14,2.73.94,1.45,1.16,2.85,1.22,3.54-.03.62-.19,2.21-1.33,3.77Z"/>
  <polygon class="cls-4" points="910.47 544.07 910.48 639.16 1030.74 639.16 1030.75 617.09 953.67 616.87 953.89 601.14 1021.67 601.14 1021.67 578.77 953.67 579.21 953.67 566.15 1027.43 566.15 1027.64 544.07 910.47 544.07"/>
  <path class="cls-4" d="M1079.55,639.62c-7.85-1.66-13.9-3.67-18.16-6.03-4.25-2.36-7.64-5.23-10.14-8.59-2.51-3.37-4.11-6.4-4.83-9.11-.71-2.71-1.06-5.6-1.06-8.66v-1.44h34.47c.75,10.32,8.2,15.48,28.34,15.48h7.67c6.62,0,9.43-.29,13.78-.86,4.35-.56,7.52-1.38,9.5-2.43,1.98-1.04,3.31-2.12,3.97-3.21.66-1.1.99-2.39.99-3.87,0-2.1-.57-3.76-1.7-4.98-1.14-1.23-3.78-2.3-7.95-3.21-4.16-.92-10.17-1.47-18.02-1.64l-10.4-.23-7.75-.17c-34.33-.88-51.49-10.4-51.49-28.59v-1.18c0-3.15.43-6.05,1.28-8.72.85-2.67,2.55-5.33,5.1-8,2.55-2.67,5.89-4.92,10.01-6.75,4.11-1.84,9.66-3.35,16.67-4.53,7-1.18,15.13-1.77,24.4-1.77h9.79c9.65,0,18.16.62,25.53,1.84,7.37,1.23,13.26,2.8,17.66,4.72,4.4,1.93,7.99,4.29,10.78,7.08,2.79,2.8,4.7,5.58,5.75,8.33,1.04,2.76,1.56,5.71,1.56,8.85v1.31h-34.33c-.19-1.04-.45-1.95-.78-2.69-.33-.75-1.11-1.73-2.34-2.95-1.23-1.23-2.84-2.23-4.82-3.02-1.99-.79-4.94-1.49-8.87-2.1-3.92-.61-6.93-.91-12.13-.91h-4.93c-7.94,0-12.95.46-17.2,1.38-4.25.91-6.83,1.88-7.73,2.89-.89,1.01-1.34,2.38-1.34,4.13,0,1.66.5,3.02,1.49,4.07,1,1.04,3.36,2.01,7.1,2.89,3.73.87,9,1.36,15.82,1.44l7.77.12,9.96.14c19.67.35,33.88,2.82,42.63,7.41,8.74,4.59,13.12,11.78,13.12,21.57v1.84c0,3.59-.42,6.8-1.28,9.64-.85,2.85-2.6,5.75-5.24,8.72-2.65,2.98-6.17,5.47-10.57,7.48-4.39,2.01-10.4,3.65-18.01,4.92-7.61,1.27-16.52,1.9-26.74,1.9h-9.79c-10.49,0-19.66-.83-27.51-2.49Z"/>
  <rect class="cls-4" x="415.12" y="523.1" width="890.66" height="11.81"/>
</svg>